<?xml version="1.0" encoding="utf-8"?>
<!-- Generator: Adobe Illustrator 27.9.0, SVG Export Plug-In . SVG Version: 6.00 Build 0)  -->
<svg version="1.1" id="圖層_1" xmlns="http://www.w3.org/2000/svg" xmlns:xlink="http://www.w3.org/1999/xlink" x="0px" y="0px"
	 viewBox="0 0 200 200" style="enable-background:new 0 0 200 200;" xml:space="preserve">
<style type="text/css">
	.st0{fill:#06275E;}
	.st1{fill:#D8D8EC;}
	.st2{fill:#ACC7E8;}
	.st3{fill:#6A78B9;}
	.st4{fill:#FBF3BD;}
	.st5{fill:#FFFFFF;}
	.st6{fill:#F5F5F5;}
	.st7{fill:#E8E6E2;}
	.st8{fill:#CCCAC8;}
	.st9{fill:#E6AC1F;}
	.st10{fill:#EDEDED;}
	.st11{fill:url(#SVGID_1_);}
	.st12{fill:#E8C771;}
	.st13{fill:#E8BF55;}
	.st14{fill:#CCA33B;}
	.st15{opacity:0.17;fill:#FFFFFF;}
	.st16{opacity:0.7;fill:#CDA43B;}
	.st17{fill:url(#SVGID_00000058549254903619222780000012559273471627663004_);}
	.st18{fill:url(#SVGID_00000088842694222289591360000018017124483773794463_);}
	.st19{fill:#F8D479;}
	.st20{fill:#D9D9D9;}
	.st21{fill:url(#SVGID_00000133506248702058703400000003434417505363400322_);}
</style>
<g>
	<path class="st0" d="M181.2,102c0,41.9-34,75.9-75.9,75.9c-41.9,0-75.9-34-75.9-75.9c0-41.9,34-75.9,75.9-75.9
		C147.2,26.1,181.2,60.1,181.2,102z"/>
	<g>
		<g>
			<g>
				<line class="st1" x1="11" y1="30.1" x2="24.9" y2="48.7"/>
				<path class="st2" d="M24.9,52c-1,0-2-0.5-2.6-1.3L8.5,32c-1.1-1.4-0.8-3.4,0.7-4.5c1.4-1.1,3.4-0.8,4.5,0.7l13.8,18.6
					c1.1,1.4,0.8,3.4-0.7,4.5C26.2,51.8,25.5,52,24.9,52z"/>
			</g>
			<path class="st2" d="M27.7,32.1L8,47.2l-3.1-4c-2-2.6-1.5-6.3,1.1-8.3L16.3,27c2.6-2,6.3-1.5,8.4,1.1L27.7,32.1z"/>
		</g>
		<g>
			<g>
				<line class="st1" x1="92.8" y1="30.1" x2="79" y2="48.7"/>
				<path class="st2" d="M79,52c-0.7,0-1.3-0.2-1.9-0.6c-1.4-1.1-1.7-3.1-0.7-4.5l13.8-18.6c1.1-1.4,3.1-1.7,4.5-0.7
					c1.4,1.1,1.7,3.1,0.7,4.5L81.6,50.7C81,51.5,80,52,79,52z"/>
			</g>
			<path class="st2" d="M76.1,32.1l19.7,15.1l3.1-4c2-2.6,1.5-6.4-1.1-8.4L87.6,27c-2.6-2-6.4-1.5-8.4,1.1L76.1,32.1z"/>
		</g>
		<g>
			<g>
				<path class="st3" d="M24.5,115.6c-20-15.2-23.9-43.8-8.6-63.8c15.2-20,43.8-23.9,63.8-8.6c20,15.2,23.9,43.8,8.6,63.8
					C73.1,127,44.5,130.9,24.5,115.6z"/>
				<path class="st2" d="M52.1,128.2c-10.7,0-20.9-3.4-29.5-10c-10.4-7.9-17-19.3-18.8-32.3C2,73,5.4,60.2,13.3,49.8
					c9.3-12.2,23.5-19.2,38.8-19.2c10.7,0,20.9,3.4,29.5,10c10.4,7.9,17,19.3,18.8,32.3c1.7,12.9-1.6,25.7-9.5,36.1
					C81.6,121.2,67.5,128.2,52.1,128.2z M52.2,37c-13.3,0-25.6,6.1-33.7,16.7c-6.9,9-9.8,20.1-8.3,31.3c1.5,11.2,7.3,21.2,16.3,28
					c7.4,5.7,16.3,8.7,25.6,8.7c13.4,0,25.6-6.1,33.7-16.7c6.9-9,9.8-20.1,8.3-31.3c-1.5-11.2-7.3-21.2-16.3-28
					C70.3,40,61.5,37,52.2,37z"/>
			</g>
			<path class="st4" d="M52.1,84.7c-1.2,0-2.3-0.4-3.2-1.1c-1.6-1.2-2.4-3.2-2-5.2c-0.1,0-0.1-0.1-0.2-0.1L25.2,61.9
				c-1.1-0.8-1.3-2.3-0.5-3.4c0.5-0.6,1.2-0.9,1.9-0.9c0.5,0,1,0.2,1.5,0.5l21.6,16.4c0,0,0.1,0.1,0.1,0.1c0.5-0.3,1.1-0.4,1.7-0.5
				l8.3-13.5c0.4-0.7,1.2-1.1,2-1.1c0.4,0,0.9,0.1,1.3,0.4c1.1,0.7,1.5,2.2,0.8,3.3l-7.8,12.7c1.7,1.9,1.8,4.7,0.3,6.8
				C55.3,83.9,53.8,84.7,52.1,84.7z M26.6,58.3c-0.5,0-1,0.2-1.3,0.6c-0.5,0.7-0.4,1.7,0.3,2.3l21.6,16.4c0.1,0.1,0.2,0.1,0.3,0.2
				l0.3,0.1l-0.1,0.3c-0.4,1.7,0.2,3.6,1.7,4.7c0.8,0.6,1.7,0.9,2.7,0.9c1.4,0,2.7-0.6,3.6-1.8c1.4-1.8,1.2-4.4-0.4-6L55.1,76
				l8.1-13.2c0.2-0.4,0.3-0.8,0.2-1.2c-0.1-0.4-0.4-0.8-0.7-1c-0.3-0.2-0.6-0.2-0.8-0.2c-0.6,0-1.1,0.3-1.4,0.8l-8.5,13.8l-0.2,0
				c-0.6,0.1-1.2,0.2-1.8,0.5l-0.3,0.2l-0.2-0.2c-0.1-0.1-0.2-0.2-0.2-0.2L27.6,58.7C27.3,58.5,27,58.3,26.6,58.3z"/>
			<g>
				<rect x="19.7" y="52" transform="matrix(0.606 -0.7954 0.7954 0.606 -35.0237 37.2055)" class="st2" width="0.8" height="4"/>
				
					<rect x="84.3" y="101.2" transform="matrix(0.6057 -0.7957 0.7957 0.6057 -48.7208 108.1294)" class="st2" width="0.8" height="4"/>
				
					<rect x="10.1" y="83.7" transform="matrix(0.9905 -0.1376 0.1376 0.9905 -11.4482 2.4648)" class="st2" width="4" height="0.8"/>
				<rect x="90.7" y="72.7" transform="matrix(0.991 -0.1338 0.1338 0.991 -8.954 13.0608)" class="st2" width="4" height="0.8"/>
				
					<rect x="25.8" y="110.5" transform="matrix(0.6063 -0.7952 0.7952 0.6063 -77.2882 65.7474)" class="st2" width="4" height="0.8"/>
				<rect x="75" y="45.9" transform="matrix(0.6063 -0.7952 0.7952 0.6063 -6.4548 79.4545)" class="st2" width="4" height="0.8"/>
				<rect x="57.5" y="116.9" transform="matrix(0.991 -0.1342 0.1342 0.991 -15.4283 8.8371)" class="st2" width="0.8" height="4"/>
				<rect x="46.5" y="36.3" transform="matrix(0.991 -0.1342 0.1342 0.991 -4.7159 6.6457)" class="st2" width="0.8" height="4"/>
			</g>
		</g>
		<path class="st2" d="M68,35.3H35.9v-2.7c0-5.8,4.7-10.5,10.5-10.5h11.2c5.8,0,10.5,4.7,10.5,10.5V35.3z M36.6,34.5h30.6v-1.9
			c0-5.4-4.4-9.7-9.7-9.7H46.4c-5.4,0-9.7,4.4-9.7,9.7V34.5z"/>
		<path class="st5" d="M109.6,80.8c0-23.7-19.2-43-43-43s-43,19.2-43,43c0,23.7,19.2,43,43,43S109.6,104.6,109.6,80.8z"/>
	</g>
	<g>
		<g>
			<g>
				<path class="st5" d="M88,77.9c1.3-4,5.7-6.3,9.9-6.8c4.2-0.6,8.5,0,12.7-0.4c4.2-0.5,8.7-2.4,10.4-6.2c1.6-3.6-0.2-8.2-3.6-10.2
					c-0.6-0.4-0.4-1.3,0.4-1.3c1.4,0.1,2.9,0.8,3.8,1.8c0.9,1.1,1.6,2,3.2,1.9c0,0,0.1,0,0.1,0c1.7-0.1,2.9-0.7,4-2.1
					c1.1-1.3,1.8-2.9,2.6-4.4c0.8-1.5,1.8-3,3.2-3.9c1-0.6,2.5-0.9,3.3,0c0.5,0.6,0.4,1.5,0.1,2.2c-0.4,0.7-0.9,1.3-1.5,1.8
					c-2.8,2.9-5.8,6.1-5.3,10.2c0.6,4,4.2,7,7.9,8.7c3.6,1.6,7.6,1.7,11.5,2.4c3.9,0.7,8.4,2.7,10.6,6l-35.8,5.1L88,77.9z"/>
				<path class="st6" d="M112.6,62.7c0-0.9,0.7-1.6,1.6-1.6c0.9,0,1.6,0.7,1.6,1.6c0,0.9-0.7,1.6-1.6,1.6
					C113.3,64.3,112.6,63.6,112.6,62.7z"/>
				<path class="st6" d="M107.4,49.4c0-0.8,0.7-1.5,1.5-1.5c0.8,0,1.5,0.7,1.5,1.5c0,0.8-0.7,1.5-1.5,1.5
					C108,50.9,107.4,50.2,107.4,49.4z"/>
				<path class="st6" d="M135.5,60.9c0-1.3,1-2.3,2.3-2.3c1.3,0,2.3,1,2.3,2.3c0,1.3-1,2.3-2.3,2.3
					C136.5,63.2,135.5,62.1,135.5,60.9z"/>
				<path class="st6" d="M98.7,59.1c0-1.3,1-2.3,2.3-2.3c1.3,0,2.3,1,2.3,2.3c0,1.3-1,2.3-2.3,2.3C99.7,61.4,98.7,60.4,98.7,59.1z"
					/>
			</g>
			<path class="st6" d="M142.1,42.4c-0.7-0.9-0.5-2.1,0.3-2.8c0.9-0.7,2.1-0.5,2.8,0.3c0.7,0.9,0.5,2.1-0.3,2.8
				C144.1,43.4,142.8,43.2,142.1,42.4z"/>
		</g>
		<g>
			<g>
				<path class="st7" d="M77.9,145.4c-0.4,1.8,0.7,3.6,2.5,4.2c5,1.5,11.3,3,18.6,3.5c7.3,0.5,13.6,0,18.7-0.7
					c1.8-0.3,3.2-1.9,3-3.8l-0.6-10.7c0.2-8.2,0.5-16.9,1.2-25.9c0.8-10.2,1.8-19.8,3.1-28.9c0.2-1.3-0.6-2.5-1.8-2.8
					c-8-2.3-26.9-4-35.4-2.9c-1.3,0.2-2.2,1.2-2.2,2.5c-0.2,9.3-0.6,19.2-1.6,29.6c-0.8,8.4-1.8,16.4-2.9,23.9
					C79.6,137.5,78.7,141.4,77.9,145.4z"/>
				<path class="st8" d="M82.8,147.6c-0.1,0.9,6.9,2.2,15.7,2.9c8.7,0.8,15.9,0.7,15.9-0.2c0.1-0.9-6.9-2.2-15.7-2.9
					C90,146.7,82.9,146.8,82.8,147.6z"/>
				<path class="st9" d="M89.2,147.6c0,0.5,3.8,1.2,8.6,1.6c4.8,0.4,8.7,0.4,8.8-0.1c0-0.5-3.8-1.2-8.6-1.6
					C93.2,147.1,89.2,147.1,89.2,147.6z"/>
				<path class="st10" d="M104.7,94.4c-2.3,0.3-4.5,0.8-6.8,1c-2.3,0.2-4.7-0.1-6.7-1.2c-1.4-0.8-2.5-2.1-3-3.5
					c0.2-3.6,0.7-11.7,0.7-13.3c11.3-0.9,27.8,1.6,32.5,2.7c-0.3,1.9-1.6,12.3-2.1,18.1c-1.7-1.6-3.8-2.8-6.1-3.4
					C110.4,94,107.5,94,104.7,94.4z"/>
				<linearGradient id="SVGID_1_" gradientUnits="userSpaceOnUse" x1="83.7561" y1="117.8365" x2="119.2416" y2="117.8365">
					<stop  offset="0" style="stop-color:#F8D479"/>
					<stop  offset="0.2078" style="stop-color:#F7D174"/>
					<stop  offset="0.4394" style="stop-color:#F4CB66"/>
					<stop  offset="0.6824" style="stop-color:#EFC04F"/>
					<stop  offset="0.9319" style="stop-color:#E9B12D"/>
					<stop  offset="1" style="stop-color:#E6AC1F"/>
				</linearGradient>
				<path class="st11" d="M83.8,139.7c1.1-8.4,3.5-34.8,4.4-49.1c0.5,1.5,1.6,2.7,3,3.5c2,1.1,4.4,1.4,6.7,1.2
					c2.3-0.2,4.5-0.7,6.8-1c2.8-0.4,5.7-0.3,8.5,0.4c2.3,0.6,4.4,1.8,6.1,3.4c-1.3,14.9-2.9,37.6-3.4,44.3c-0.1,1.1-0.9,2-2.1,2.1
					c-15.4,1.6-24.7-0.7-28.7-2.5C84.2,141.7,83.6,140.7,83.8,139.7z"/>
				<path class="st12" d="M107.5,113c0,0.9,0.7,1.6,1.6,1.6s1.6-0.7,1.6-1.6c0-0.9-0.7-1.6-1.6-1.6S107.5,112.1,107.5,113z"/>
				<path class="st12" d="M92.4,97.6c0,0.6,0.5,1,1,1c0.6,0,1-0.5,1-1c0-0.6-0.5-1-1-1C92.9,96.6,92.4,97.1,92.4,97.6z"/>
				<path class="st12" d="M113.2,104.1c0,0.6,0.5,1,1,1c0.6,0,1-0.5,1-1c0-0.6-0.5-1-1-1C113.7,103.1,113.2,103.6,113.2,104.1z"/>
				<path class="st13" d="M92.1,120.5c0,1.6,1.3,2.9,2.9,2.9c1.6,0,2.9-1.3,2.9-2.9c0-1.6-1.3-2.9-2.9-2.9
					C93.4,117.6,92.1,118.9,92.1,120.5z"/>
				<path class="st13" d="M104.9,135.3c0,1.3,1,2.3,2.3,2.3c1.3,0,2.3-1,2.3-2.3c0-1.3-1-2.3-2.3-2.3
					C105.9,133,104.9,134.1,104.9,135.3z"/>
				<path class="st14" d="M86.9,140.1c0,0.4,5,2.4,11.7,3c6.8,0.6,12.8-0.3,12.8-0.7c0-0.4-5.4-1.2-12.2-1.9
					C92.5,139.9,87,139.7,86.9,140.1z"/>
				<g>
					<path class="st5" d="M94.2,81.8l-3.8,52.5c-0.1,0.8-0.7,1.3-1.5,1.3c-0.8-0.1-1.3-0.7-1.3-1.5c0,0,0,0,0,0L93,81.7
						c0-0.3,0.3-0.6,0.7-0.5C94,81.2,94.2,81.4,94.2,81.8z"/>
				</g>
				<path class="st15" d="M97.2,135.4l3,0.2c1.6,0.1,2.9-1.1,3.1-2.6l3.7-48.8c0.1-1.1-0.7-2-1.8-2.1l-4.9-0.3
					c-1.1-0.1-2,0.7-2.1,1.8l-3.7,48.8C94.4,133.9,95.6,135.2,97.2,135.4z"/>
				<path class="st16" d="M112.8,96.4c0,1.3-1.1,2.4-2.4,2.4c-1.3,0-2.4-1.1-2.4-2.4c0-1.3,1.1-2.4,2.4-2.4
					C111.7,94.1,112.8,95.1,112.8,96.4z"/>
				<path class="st5" d="M112.6,95.4c0,1.3-1.1,2.4-2.4,2.4c-1.3,0-2.4-1.1-2.4-2.4c0-1.3,1.1-2.4,2.4-2.4
					C111.5,93,112.6,94.1,112.6,95.4z"/>
				<path class="st16" d="M107.1,108.6c0,1.3-1.1,2.4-2.4,2.4c-1.3,0-2.4-1.1-2.4-2.4s1.1-2.4,2.4-2.4
					C106,106.2,107.1,107.3,107.1,108.6z"/>
				<path class="st5" d="M106.8,107.5c0,1.3-1.1,2.4-2.4,2.4c-1.3,0-2.4-1.1-2.4-2.4c0-1.3,1.1-2.4,2.4-2.4
					C105.8,105.1,106.8,106.2,106.8,107.5z"/>
				<path class="st5" d="M124.2,81c0.1,2.1-3-1.4-5.8,2c-1.4,1.6-2.6,3.4-4,5.1c-1.4,1.6-3.4,3-5.6,2.7c-2.2-0.3-3.9-2.2-4.9-4.1
					c-1-2-1.7-4.2-3-5.9c-1.8-2.3-4.7-3.7-7.6-3.5c0,0,3.4-4.8,14.2-1.7c3.4,1,7-1.3,10.7-0.4C120.7,75.6,124,76.8,124.2,81z"/>
			</g>
			<g>
				<g>
					
						<linearGradient id="SVGID_00000068651083817733125970000008265013389742577043_" gradientUnits="userSpaceOnUse" x1="57.7876" y1="110.7933" x2="85.7703" y2="110.7933">
						<stop  offset="0" style="stop-color:#B0AEAC"/>
						<stop  offset="0.1991" style="stop-color:#BBB9B7"/>
						<stop  offset="0.5621" style="stop-color:#D7D5D4"/>
						<stop  offset="1" style="stop-color:#FFFFFF"/>
					</linearGradient>
					<path style="fill:url(#SVGID_00000068651083817733125970000008265013389742577043_);" d="M57.9,114l2.2-19.6
						c0.7-6.6,6.5-11.3,13.1-10.7l11.8,1c0.3,0.5,1,2,0.7,3.9c-0.2,1.5-0.8,2.5-1.2,3c-4-0.3-8-0.7-12-1c-2.9-0.2-5.4,1.8-5.7,4.7
						l-2.2,19.6c-0.2,1.9,0.6,3.7,2.1,4.8l14.3,10.6c0.3,0.6,1,2.3,0.5,4.5c-0.3,1.7-1.2,2.8-1.6,3.3c-5.8-4.3-11.5-8.6-17.3-12.9
						C59.2,122.5,57.4,118.2,57.9,114z"/>
				</g>
			</g>
		</g>
		<g>
			<g>
				<path class="st7" d="M176.3,145.8c0.4,1.8-0.7,3.7-2.5,4.2c-5,1.5-11.4,3-18.8,3.5c-7.3,0.5-13.8,0-18.9-0.7
					c-1.9-0.3-3.2-1.9-3.1-3.8l0.6-10.7c-0.2-8.3-0.5-17-1.2-26c-0.8-10.2-1.9-19.9-3.2-29c-0.2-1.3,0.6-2.5,1.8-2.8
					c8.1-2.3,27.2-4,35.9-2.9c1.3,0.2,2.2,1.2,2.2,2.5c0.2,9.4,0.7,19.3,1.6,29.8c0.8,8.4,1.8,16.5,2.9,24.1
					C174.6,137.8,175.5,141.8,176.3,145.8z"/>
				<path class="st8" d="M171.3,148c0.1,0.9-7,2.2-15.8,2.9c-8.8,0.8-16,0.7-16.1-0.2c-0.1-0.9,7-2.2,15.8-2.9
					C164,147.1,171.2,147.2,171.3,148z"/>
				<path class="st9" d="M164.9,148c0,0.5-3.9,1.2-8.7,1.6c-4.9,0.4-8.8,0.4-8.9-0.1c0-0.5,3.9-1.2,8.7-1.6
					C160.9,147.5,164.9,147.5,164.9,148z"/>
				<path class="st10" d="M166.1,93.9c-0.2-3.6-0.9-15-0.9-16.6c-11.5-0.9-28.2,1.6-32.9,2.7c0.3,1.9,1.6,12.3,2.1,18.2
					C141.9,97.4,157.2,95.8,166.1,93.9z"/>
				
					<linearGradient id="SVGID_00000165226330048923128150000016503721635913100431_" gradientUnits="userSpaceOnUse" x1="134.6102" y1="118.061" x2="170.3847" y2="118.061">
					<stop  offset="0" style="stop-color:#F8D479"/>
					<stop  offset="0.2078" style="stop-color:#F7D174"/>
					<stop  offset="0.4394" style="stop-color:#F4CB66"/>
					<stop  offset="0.6824" style="stop-color:#EFC04F"/>
					<stop  offset="0.9319" style="stop-color:#E9B12D"/>
					<stop  offset="1" style="stop-color:#E6AC1F"/>
				</linearGradient>
				<path style="fill:url(#SVGID_00000165226330048923128150000016503721635913100431_);" d="M170.4,140c-1.1-8.4-3.5-35-4.4-49.4
					c-7.7,9.7-23.9-4.6-30,4.3c-1,1.5-1.4,3.4-1.3,5.2c1.3,14.9,2.8,36.1,3.3,42.6c0.1,1.1,1,2,2.1,2.1c15.6,1.6,25-0.7,29-2.5
					C170,142,170.5,141,170.4,140z"/>
				<path class="st19" d="M145.6,124c0,0.9-0.7,1.6-1.7,1.6c-0.9,0-1.6-0.7-1.6-1.6c0-0.9,0.7-1.6,1.6-1.6
					C144.9,122.4,145.6,123.1,145.6,124z"/>
				<path class="st13" d="M140.5,100.6c0,0.9-0.7,1.6-1.6,1.6c-0.9,0-1.6-0.7-1.6-1.6c0-0.9,0.7-1.6,1.6-1.6
					C139.8,98.9,140.5,99.7,140.5,100.6z"/>
				<path class="st12" d="M161.6,97.8c0,0.6-0.5,1-1,1c-0.6,0-1-0.5-1-1c0-0.6,0.5-1,1-1C161.1,96.7,161.6,97.2,161.6,97.8z"/>
				<path class="st19" d="M162.4,127c0,0.6-0.5,1-1,1c-0.6,0-1-0.5-1-1s0.5-1,1-1C161.9,126,162.4,126.4,162.4,127z"/>
				<path class="st13" d="M161.9,120.7c0,1.6-1.3,2.9-3,2.9c-1.6,0-3-1.3-3-2.9s1.3-2.9,3-2.9C160.6,117.8,161.9,119.1,161.9,120.7z
					"/>
				<path class="st13" d="M150.4,112.4c0,1.6-1.3,2.9-3,2.9c-1.6,0-3-1.3-3-2.9c0-1.6,1.3-2.9,3-2.9
					C149.1,109.5,150.4,110.8,150.4,112.4z"/>
				<path class="st13" d="M149,135.6c0,1.3-1,2.3-2.3,2.3c-1.3,0-2.3-1-2.3-2.3c0-1.3,1-2.3,2.3-2.3C148,133.3,149,134.4,149,135.6z
					"/>
				<path class="st14" d="M167.2,140.5c0,0.4-5,2.4-11.9,3.1c-6.9,0.6-13-0.3-13-0.8c0-0.4,5.5-1.2,12.4-1.9
					C161.6,140.2,167.1,140.1,167.2,140.5z"/>
				<g>
					<path class="st5" d="M159.8,81.8l3.8,52.8c0.1,0.8,0.7,1.3,1.5,1.3c0.8-0.1,1.4-0.7,1.3-1.5c0,0,0,0,0,0L161,81.7
						c0-0.3-0.3-0.6-0.7-0.5C160,81.2,159.8,81.5,159.8,81.8z"/>
				</g>
				<path class="st15" d="M156.8,135.7l-3.1,0.2c-1.6,0.1-3-1.1-3.1-2.7l-3.7-49.1c-0.1-1.1,0.7-2,1.8-2.1l4.9-0.3
					c1.1-0.1,2,0.7,2.1,1.8l3.7,49.1C159.6,134.2,158.4,135.6,156.8,135.7z"/>
				<path class="st20" d="M153.4,83.7c0,0.6,0.5,1.2,1.2,1.2c0.6,0,1.2-0.5,1.2-1.2c0-0.6-0.5-1.2-1.2-1.2
					C154,82.5,153.4,83,153.4,83.7z"/>
				<path class="st5" d="M153.5,83.2c0,0.6,0.5,1.2,1.2,1.2c0.6,0,1.2-0.5,1.2-1.2c0-0.6-0.5-1.2-1.2-1.2
					C154.1,82,153.5,82.5,153.5,83.2z"/>
				<ellipse class="st16" cx="146.4" cy="104.1" rx="2.2" ry="2.1"/>
				<ellipse class="st5" cx="146.6" cy="103.3" rx="2.2" ry="2.1"/>
				<ellipse class="st16" cx="155.2" cy="95.4" rx="2.2" ry="2.1"/>
				<path class="st5" d="M153.3,94.6c0,1.2,1,2.1,2.2,2.1s2.2-1,2.2-2.1c0-1.2-1-2.1-2.2-2.1S153.3,93.4,153.3,94.6z"/>
				<path class="st5" d="M129.5,81.7c0.5-0.5,4.1-1.5,7.4,1.4c4,3.5,3.6,16.2,9.1,15.8c5.3-0.3,2.1-13.6,5.4-17.7
					c1.8-2.3,6.3-4.2,9.2-4c0,0-3.5-4.8-14.3-1.7c-3.4,1-7.1-1.4-10.8-0.4C133,75.7,129.7,77.5,129.5,81.7z"/>
			</g>
			<g>
				<g>
					
						<linearGradient id="SVGID_00000036948091847905169190000001525548329307366294_" gradientUnits="userSpaceOnUse" x1="168.3457" y1="110.9809" x2="196.6617" y2="110.9809">
						<stop  offset="0" style="stop-color:#FFFFFF"/>
						<stop  offset="0.4379" style="stop-color:#D7D5D4"/>
						<stop  offset="0.8009" style="stop-color:#BBB9B7"/>
						<stop  offset="1" style="stop-color:#B0AEAC"/>
					</linearGradient>
					<path style="fill:url(#SVGID_00000036948091847905169190000001525548329307366294_);" d="M196.6,114.2l-2.2-19.7
						c-0.7-6.6-6.6-11.4-13.2-10.8l-12,1c-0.3,0.5-1,2-0.8,3.9c0.2,1.5,0.9,2.5,1.2,3c4-0.3,8.1-0.7,12.1-1c2.9-0.2,5.4,1.8,5.8,4.7
						l2.2,19.7c0.2,1.9-0.6,3.7-2.1,4.9l-14.5,10.6c-0.3,0.6-1,2.3-0.6,4.5c0.3,1.7,1.2,2.8,1.7,3.3c5.8-4.3,11.7-8.6,17.5-13
						C195.2,122.8,197.1,118.5,196.6,114.2z"/>
				</g>
			</g>
		</g>
	</g>
</g>
</svg>
