<?xml version="1.0" encoding="utf-8"?>
<!-- Generator: Adobe Illustrator 27.9.0, SVG Export Plug-In . SVG Version: 6.00 Build 0)  -->
<svg version="1.1" id="圖層_1" xmlns="http://www.w3.org/2000/svg" xmlns:xlink="http://www.w3.org/1999/xlink" x="0px" y="0px"
	 viewBox="0 0 912 165" style="enable-background:new 0 0 912 165;" xml:space="preserve">
<style type="text/css">
	.st0{fill:url(#SVGID_1_);}
	.st1{fill:#387C39;}
	.st2{fill:url(#SVGID_00000087379951064776577480000017681429149579181703_);}
	.st3{fill:#E95506;}
	.st4{fill:#3F3A3A;}
	.st5{fill:#4C8A4D;}
	.st6{fill:#EC681F;}
</style>
<g>
	<radialGradient id="SVGID_1_" cx="42.9301" cy="39.2867" r="36.9301" gradientUnits="userSpaceOnUse">
		<stop  offset="0" style="stop-color:#D0DEBB"/>
		<stop  offset="0.1319" style="stop-color:#C1D5AF"/>
		<stop  offset="0.384" style="stop-color:#9BBC8E"/>
		<stop  offset="0.7274" style="stop-color:#5E9559"/>
		<stop  offset="0.8802" style="stop-color:#408240"/>
	</radialGradient>
	<circle class="st0" cx="42.93" cy="39.29" r="36.93"/>
	<path class="st1" d="M18.52,76.22c0,0,9.36,6.21,24.41,6.21s24.06-6.21,24.06-6.21l-24.06,86.43L18.52,76.22z"/>
	
		<radialGradient id="SVGID_00000016774473931905501790000009329884026448927634_" cx="544.9058" cy="39.2867" r="36.9301" gradientUnits="userSpaceOnUse">
		<stop  offset="0.0307" style="stop-color:#F9B700"/>
		<stop  offset="0.2035" style="stop-color:#F8B301"/>
		<stop  offset="0.389" style="stop-color:#F6A603"/>
		<stop  offset="0.5803" style="stop-color:#F29006"/>
		<stop  offset="0.7745" style="stop-color:#ED730B"/>
		<stop  offset="0.8802" style="stop-color:#EA5F0E"/>
	</radialGradient>
	<circle style="fill:url(#SVGID_00000016774473931905501790000009329884026448927634_);" cx="544.91" cy="39.29" r="36.93"/>
	<path class="st3" d="M520.5,76.22c0,0,9.36,6.21,24.41,6.21s24.06-6.21,24.06-6.21l-24.06,86.43L520.5,76.22z"/>
	<path class="st4" d="M135.94,66.64l9.57-9.57c0,0-8.21-9.57-28.72-4.1S88.07,87.16,88.07,87.16h15.05c0,0,2.74-15.05,12.31-21.88
		S134.57,62.54,135.94,66.64z"/>
	<path class="st4" d="M86.7,91.26c0,0-2.74,15.05,5.47,25.99s28.72,12.31,39.67,2.74l-5.47-8.21c0,0-4.1,4.1-10.94,4.1
		s-16.52-2.74-13.73-24.62H86.7z"/>
	<polygon class="st4" points="159.19,84.42 175.6,52.96 192.79,52.96 195.1,84.42 182.02,84.42 180.86,69.22 172.98,84.42 	"/>
	<polygon class="st4" points="155.47,91.26 137.39,126.39 151.43,126.39 169.71,91.26 	"/>
	<polygon class="st4" points="181.82,91.26 184.32,126.39 199.9,126.39 195.1,91.26 	"/>
	<path class="st4" d="M215.27,94l-6.9,32.39h11.01c0,0,30.09,1.8,38.3-10.51c8.21-12.31,8.98-21.88,8.98-21.88h-15.81
		c0,0,0.31,14.49-9.57,17.78c-8.21,2.74-16.41,2.74-16.41,2.74L229.72,94H215.27z"/>
	<path class="st4" d="M218.18,82.43l6.16-29.46h14.81c0,0,34.26-3.99,29.81,29.46h-14.62c0,0,1.97-11.68-3.5-15.79
		c-5.47-4.1-15.05-2.74-15.05-2.74l-4.72,18.52H218.18z"/>
	<path class="st4" d="M285.69,82.43l5.58-29.61h18.08c0,0,18.08,0.15,22.18,5.62c4.1,5.47,5.47,12.31,5.47,21.88h-15.05
		c0,0,0.21-10.35-1.26-12.7s-9.68-6.45-19.26-3.72l-3.25,18.52H285.69z"/>
	<path class="st4" d="M282.29,95.37l-6.8,31.12h12.69c0,0,19.71,1.25,29.66-6.5c12.31-9.57,15.05-21.88,15.05-21.88h-16.41
		c0,0,1.37,16.41-24.62,16.41l3.63-19.15H282.29z"/>
	<polygon class="st4" points="345.21,98.1 338.97,126.48 351.66,126.48 359.55,98.1 	"/>
	<polygon class="st4" points="349.26,80.13 354.93,52.82 369.55,52.82 363.78,80.13 	"/>
	<polygon class="st4" points="380.77,77.58 393.21,77.58 395.82,63.91 420.33,63.91 425.14,52.82 384.88,52.82 	"/>
	<polygon class="st4" points="376.67,99.47 370.71,126.48 408.21,126.48 414.37,112.98 386.24,112.98 389.17,99.47 	"/>
	<polygon class="st5" points="401.29,87.16 444.95,80.13 441.68,98.1 	"/>
	<path class="st4" d="M598.25,88.53c-1.24-1.79-3.51-5.59-4.1-10.94c-0.06-0.51-0.61-6,1.37-10.94
		c4.39-10.97,20.15-16.44,32.83-15.05c8.62,0.94,15.13,4.98,19.15,8.21c-3.19,2.74-6.38,5.47-9.57,8.21
		c-1.13-1.1-5.48-5.08-12.31-5.47c-1.9-0.11-6.83-0.49-10.94,2.74c-0.93,0.73-4.16,3.27-4.1,6.84c0.02,1.11,0.36,2.94,2.74,5.47
		c5.88,6.27,16.61,8.78,20.52,9.57C621.96,87.61,610.1,88.07,598.25,88.53z"/>
	<path class="st4" d="M609.19,94c9.59,0,19.17,0,28.76,0c0.33,3.08,1.02,13.08-5.5,21.88c-3.59,4.85-7.81,7.24-9.57,8.21
		c-16.75,9.23-38.29-1.34-41.03-2.74c2.28-3.65,4.56-7.29,6.84-10.94c1.62,1.23,11.64,8.59,23.25,5.47c2.23-0.6,5.65-1.15,8.21-4.1
		c0.29-0.33,2.74-2.74,2.74-8.21S616.55,94.11,609.19,94z"/>
	<path class="st4" d="M654.33,87.16c4.1,0,8.21,0,12.31,0c0-11.4,0-22.8,0-34.19c-4.1,0-8.21,0-12.31,0
		C654.33,64.36,654.33,75.76,654.33,87.16z"/>
	<path class="st4" d="M654.33,94c0,10.94,0,21.88,0,32.83c4.56,0,9.12,0,13.68,0c5.47-10.94,10.94-21.88,16.41-32.83
		c-4.1,0-8.21,0-12.31,0c-1.82,4.56-3.65,9.12-5.47,13.68c0-4.56,0-9.12,0-13.68C662.53,94,658.43,94,654.33,94z"/>
	<path class="st4" d="M674.84,87.16c5.02-11.4,10.03-22.8,15.05-34.19c4.56,0,9.12,0,13.68,0c0,11.4,0,22.8,0,34.19
		c-3.65,0-7.29,0-10.94,0c0-4.56,0-11.85,0-16.41c-2.28,4.56-4.56,11.85-6.84,16.41C682.14,87.16,678.49,87.16,674.84,87.16z"/>
	<path class="st4" d="M691.26,94c0,10.94,0,21.88,0,32.83c5.02,0,10.03,0,15.05,0c5.02-10.94,10.03-21.88,15.05-32.83
		c-4.1,0-8.21,0-12.31,0c-2.28,4.1-4.56,8.21-6.84,12.31c0-4.1,0-8.21,0-12.31C698.55,94,694.91,94,691.26,94z"/>
	<path class="st4" d="M711.78,84.42c4.56-10.03,9.12-20.06,13.68-30.09c4.56,0,9.12,0,13.68,0c-4.56,10.03-9.12,20.06-13.68,30.09
		C720.89,84.42,716.33,84.42,711.78,84.42z"/>
	<path class="st4" d="M751.44,54.33c-2.28,10.03-4.56,20.06-6.84,30.09c4.56,0,9.12,0,13.68,0c2.28-10.03,4.56-20.06,6.84-30.09
		C760.56,54.33,756,54.33,751.44,54.33z"/>
	<path class="st4" d="M741.87,95.37c-2.28,10.49-4.56,20.97-6.84,31.46c4.56,0,9.12,0,13.68,0c2.28-10.49,4.56-20.97,6.84-31.46
		C750.98,95.37,746.43,95.37,741.87,95.37z"/>
	<path class="st4" d="M773.33,96.73c-2.28,10.03-4.56,20.06-6.84,30.09c4.56,0,9.12,0,13.68,0c2.28-10.03,4.56-20.06,6.84-30.09
		C782.44,96.73,777.88,96.73,773.33,96.73z"/>
	<path class="st4" d="M776.06,83.06c2.28-10.03,4.56-20.06,6.84-30.09c5.04,0,10.07,0,15.11,0c2.26,10.03,4.52,20.06,6.78,30.09
		c-3.65,0-7.29,0-10.94,0c-0.91-3.19-3.19-6.38-4.1-9.57c-0.91,3.19-0.46,6.38-1.37,9.57C784.27,83.06,780.16,83.06,776.06,83.06z"
		/>
	<path class="st4" d="M812.99,81.69c2.28-9.57,4.56-19.15,6.84-28.72c4.1,0,8.21,0,12.31,0c-2.28,9.57-4.56,19.15-6.84,28.72
		C821.2,81.69,817.09,81.69,812.99,81.69z"/>
	<path class="st4" d="M795.21,98.1c2.74,9.57,5.47,19.15,8.21,28.72c3.65,0,7.29,0,10.94,0c2.74-9.57,5.47-19.15,8.21-28.72
		c-3.65,0-7.29,0-10.94,0c-0.46,1.82-0.91,3.65-1.37,5.47c-0.46-1.82-0.91-3.65-1.37-5.47C804.33,98.1,799.77,98.1,795.21,98.1z"/>
	<path class="st4" d="M838.98,81.69c1.04-3.66,4.31-13.19,13.68-20.52c2.86-2.24,12.49-9.53,25.99-8.21
		c9.85,0.97,16.54,6.01,19.15,8.21c-2.74,2.74-5.47,5.47-8.21,8.21c-1.19-1.02-8.56-7.15-17.78-5.47
		c-7.69,1.4-12.34,7.44-15.05,10.94c-2.02,2.63-3.31,5.09-4.1,6.84C848.1,81.69,843.54,81.69,838.98,81.69z"/>
	<path class="st4" d="M834.88,99.47c5.47,0,10.94,0,16.41,0c-0.27,0.79-0.33,9.77,1.37,12.31c2.74,4.1,13.61,7.42,19.15,2.74
		c5.14-4.34,4.18-11.75,4.1-12.31c5.02,0,10.03,0,15.05,0c-0.08,1.78-0.77,12.6-9.57,19.15c-3.57,2.66-7.15,3.52-9.57,4.1
		c-2.25,0.54-13.19,3.38-21.88-1.37C834.88,115.88,835,100.55,834.88,99.47z"/>
	<path class="st6" d="M863.6,89.89c14.13-2.74,28.27-5.47,42.4-8.21c-1.37,5.93-2.74,11.85-4.1,17.78
		C889.13,96.28,876.36,93.09,863.6,89.89z"/>
</g>
</svg>
